<svg width="94" height="70" viewBox="0 0 94 70" fill="none" xmlns="http://www.w3.org/2000/svg">
<path d="M74.6704 0L0.557172 12.6044L0.499878 19.0394L19.6616 35.454L64.6142 27.132L64.7007 43.3894L82.8725 59.0202L93.7772 56.965L94 16.9064L74.6704 0ZM20.1208 18.3492L67.0038 10.5772L79.1704 20.0064L78.7458 39.8412L76.5255 38.9538L76.1419 20.0505L70.3382 15.3094L25.2713 22.8505L20.1208 18.3492Z" fill="#1B1918"/>
<path d="M7.60215 45.0543L0.0949565 46.3786L0 53.401L18.8775 70L61.6566 62.4597L61.6756 56.1128L57.9352 52.4718L22.4761 58.7451L7.60215 45.0543ZM8.16987 28.6332L0.550072 29.5898L0.567393 36.0595L18.4875 52.2495L61.8177 44.7385L61.9093 38.2021L57.551 35.524L22.5348 42.0228L8.16987 28.6332Z" fill="#E84212"/>
</svg>
