<svg width="83" height="83" viewBox="0 0 83 83" fill="none" xmlns="http://www.w3.org/2000/svg">
<g clip-path="url(#clip0_0_80)">
<path d="M41.5 77.8125C31.8693 77.8125 22.6331 73.9867 15.8232 67.1768C9.01327 60.3669 5.1875 51.1307 5.1875 41.5C5.1875 31.8693 9.01327 22.6331 15.8232 15.8232C22.6331 9.01327 31.8693 5.1875 41.5 5.1875C51.1307 5.1875 60.3669 9.01327 67.1768 15.8232C73.9867 22.6331 77.8125 31.8693 77.8125 41.5C77.8125 51.1307 73.9867 60.3669 67.1768 67.1768C60.3669 73.9867 51.1307 77.8125 41.5 77.8125ZM41.5 83C52.5065 83 63.0622 78.6277 70.8449 70.8449C78.6277 63.0622 83 52.5065 83 41.5C83 30.4935 78.6277 19.9378 70.8449 12.1551C63.0622 4.37231 52.5065 0 41.5 0C30.4935 0 19.9378 4.37231 12.1551 12.1551C4.37231 19.9378 0 30.4935 0 41.5C0 52.5065 4.37231 63.0622 12.1551 70.8449C19.9378 78.6277 30.4935 83 41.5 83Z" fill="white"/>
<path d="M32.5308 26.2227C32.9551 26.0043 33.4314 25.9071 33.9073 25.9419C34.3832 25.9766 34.8403 26.142 35.2283 26.4199L53.3846 39.3886C53.7208 39.6285 53.9949 39.9453 54.184 40.3125C54.373 40.6798 54.4717 41.0869 54.4717 41.4999C54.4717 41.913 54.373 42.3201 54.184 42.6873C53.9949 43.0545 53.7208 43.3713 53.3846 43.6112L35.2283 56.58C34.8405 56.8576 34.3836 57.0229 33.9079 57.0576C33.4322 57.0924 32.9561 56.9954 32.532 56.7771C32.1079 56.5589 31.7522 56.228 31.504 55.8207C31.2557 55.4135 31.1246 54.9456 31.125 54.4687V28.5312C31.1245 28.0544 31.2555 27.5866 31.5035 27.1794C31.7515 26.7721 32.1069 26.4411 32.5308 26.2227Z" fill="white"/>
</g>
<defs>
<clipPath id="clip0_0_80">
<rect width="83" height="83" fill="white"/>
</clipPath>
</defs>
</svg>
